<svg id="logo-icon" viewBox="0 0 515.582 91.199">
  <path clip-rule="evenodd" d="M490.039 67.208a23.247 23.247 0 01-5.824-1.632 22.583 22.583 0 01-4.831-2.813c-3.068-2.345-5.489-5.504-6.88-9.123a19.73 19.73 0 01-1.307-6.69 20.361 20.361 0 011.562-8.228c1.301-3.107 3.408-5.857 6-7.997a22.327 22.327 0 014.44-2.855l.005-.001.369-.176.007-.003.372-.168.008-.004.002-.001a23.365 23.365 0 018.11-1.929c1.79-.098 3.587.007 5.354.311 3.28.569 6.424 1.826 9.157 3.72a21.135 21.135 0 016.619 7.417 20.392 20.392 0 012.308 7.734 19.772 19.772 0 01-.302 5.562 20.374 20.374 0 01-1.869 5.362 20.874 20.874 0 01-4.426 5.783 22.34 22.34 0 01-3.829 2.832 22.89 22.89 0 01-7.39 2.743 23.668 23.668 0 01-7.655.156zm-193.1-29.71c-3.646-1.89-7.564-3.129-11.651-3.612-2.156-.253-4.446-.394-6.591.012-1.487.281-3.215.979-3.806 2.499-.508 1.307-.05 2.702.99 3.648 2.146 1.953 5.627 2.208 8.385 2.507 1.314.143 2.643.299 3.978.508 3.466.542 6.891 1.426 9.775 3.512 2.497 1.809 4.068 4.569 4.3 7.63.163 2.164-.29 4.396-1.358 6.291-1.8 3.194-5.06 5.035-8.491 5.977-4.27 1.17-8.929 1.355-13.401.781-5.301-.678-10.302-2.517-14.887-5.266l4.321-7.211c2.124 1.113 4.316 2.054 6.592 2.768 2.977.934 6.127 1.499 9.254 1.481 2.352-.013 6.285-.356 7.775-2.578.819-1.219.669-2.711-.436-3.693-1.743-1.551-5.428-1.91-7.645-2.127-1.577-.157-3.154-.334-4.714-.61-3.606-.634-7.325-1.856-10.14-4.278-2.36-2.028-3.902-4.942-3.892-8.104.003-.758.089-1.514.249-2.252.621-2.867 2.361-5.372 4.782-7.001 2.83-1.903 6.411-2.692 9.776-2.925 2.38-.163 4.79-.033 7.152.28 4.946.654 9.611 2.19 13.921 4.658zm155.338-7.896l9.291-5.969v43.271h-9.291zM345.43 26.093v8.111l-14.241-.001-.001 32.7h-9.292l.001-32.7-14.242.001v-8.111zm17.572 22.136c0 1.415.155 2.833.652 4.166 1.527 4.107 5.687 6.299 9.877 6.287 3.528-.022 6.63-1.539 8.458-4.112 1.348-1.899 1.752-4.082 1.752-6.352V26.092h9.294v22.037c0 3.602-.731 7.188-2.572 10.319-2.398 4.077-6.298 6.783-10.713 8.086-2.08.613-4.256.915-6.431.908-3.668-.011-7.365-.889-10.569-2.697-2.768-1.563-5.122-3.79-6.684-6.567a17.362 17.362 0 01-1.67-4.184c-.484-1.87-.687-3.81-.687-5.769V26.092h9.294v22.137zM143.585 55.38h-12.99c-.006 3.841-.013 7.683-.017 11.524h-9.293V26.093l22.581.002a14.7 14.7 0 016.549 1.544 14.67 14.67 0 017.552 9.159 14.71 14.71 0 01-.346 8.966 14.62 14.62 0 01-3.996 5.885 14.693 14.693 0 01-3.624 2.385c-2.024.936-4.195 1.346-6.416 1.346zM130.58 34.203V47.22l12.206-.001c.849 0 1.691-.171 2.469-.491a6.533 6.533 0 002.76-2.167 6.427 6.427 0 00.994-2.015 6.61 6.61 0 00.196-2.691 6.49 6.49 0 00-2.55-4.315 6.413 6.413 0 00-2.534-1.124 10.798 10.798 0 00-2.232-.211zm64.434 20.481l10.707 12.217h-11.648l-9.399-11.573h-7.387l-.013 11.575h-9.294l-.001-40.81 11.429.002h10.552c1.22 0 2.417.108 3.578.343 2.306.465 4.46 1.46 6.285 2.948a14.654 14.654 0 014.641 6.71c.985 2.984.968 6.273-.013 9.263a14.51 14.51 0 01-4.502 6.627c-1.474 1.227-3.109 2.089-4.935 2.698zm-6.511-20.48l-11.228-.001v13.018l11.888-.002c1.404 0 2.672-.269 3.875-1.055.126-.083.243-.164.347-.243l-.001-.001c.114-.085.225-.175.33-.266l.005-.003.005-.004h-.001a6.577 6.577 0 001.901-2.798 6.523 6.523 0 00-.182-4.7 6.477 6.477 0 00-3.083-3.217c-1.196-.58-2.532-.728-3.856-.728zm43.163 33.004a23.259 23.259 0 01-5.824-1.632 22.583 22.583 0 01-4.831-2.813c-3.068-2.345-5.489-5.504-6.88-9.123a19.78 19.78 0 01-1.308-6.69 20.345 20.345 0 011.563-8.228c1.301-3.107 3.407-5.857 5.999-7.997a22.385 22.385 0 014.44-2.855l.006-.001.369-.176.006-.003.373-.168.008-.004.001-.001a23.359 23.359 0 018.11-1.929 23.891 23.891 0 015.355.311c3.28.569 6.424 1.826 9.158 3.72a21.122 21.122 0 016.618 7.417 20.394 20.394 0 012.309 7.734 19.736 19.736 0 01-.303 5.562 20.372 20.372 0 01-1.868 5.362 20.893 20.893 0 01-4.426 5.783 22.308 22.308 0 01-3.83 2.832 22.89 22.89 0 01-7.39 2.743 23.666 23.666 0 01-7.655.156zm3.388-8.431a12.968 12.968 0 005.474-1.195c2.501-1.162 4.602-3.113 5.877-5.572a11.975 11.975 0 001.32-6.343 11.95 11.95 0 00-1.372-4.78c-1.326-2.5-3.528-4.486-6.115-5.607a13.22 13.22 0 00-5.898-1.056c-3.045.15-6.002 1.373-8.226 3.471a12.324 12.324 0 00-3.035 4.486 11.951 11.951 0 00-.801 4.718 12.017 12.017 0 003.477 8.04c2.421 2.448 5.842 3.828 9.299 3.838zm187.997-32.681a19.186 19.186 0 019.499 2.447 19.45 19.45 0 015.65 4.821c2.474 3.117 4.008 6.934 4.43 10.893a21.342 21.342 0 01-.834 8.575c-.998 3.211-2.784 6.184-5.188 8.544a19.283 19.283 0 01-9.061 5.002c-1.785.416-3.593.522-5.42.522l-17.823.002V26.093zm-.974 8.109h-8.478v24.587h8.932c1.336 0 2.722-.241 3.972-.71 2.102-.79 3.845-2.273 5.024-4.167 1.446-2.316 2.043-5.092 1.975-7.801a14.972 14.972 0 00-.679-4.152c-.766-2.406-2.192-4.579-4.34-6.022-1.913-1.285-4.14-1.735-6.406-1.735zm71.349 24.572a12.964 12.964 0 005.473-1.195c2.501-1.162 4.603-3.113 5.877-5.572a11.995 11.995 0 001.321-6.343 11.965 11.965 0 00-1.372-4.78c-1.326-2.5-3.528-4.486-6.116-5.607a13.22 13.22 0 00-5.898-1.056c-3.045.15-6.003 1.373-8.227 3.471a12.336 12.336 0 00-3.035 4.486 11.987 11.987 0 00-.801 4.718 12.014 12.014 0 003.478 8.04c2.422 2.448 5.842 3.828 9.3 3.838z" fill-rule="evenodd"></path>
  <path clip-rule="evenodd" d="M45.6 91.199C45.6 66.02 25.179 45.6 0 45.6L67.435 2.281A36.367 36.367 0 0054.72.002L0 0v91.199zm4.478-18.237l4.642-.004c20.143 0 36.476-16.334 36.476-36.479 0-15.672-9.887-29.038-23.758-34.2-5.76 23.56-11.6 47.119-17.36 70.683z" fill="#1a81c4" fill-rule="evenodd"></path>
</svg>
